<svg xmlns="http://www.w3.org/2000/svg" width="48" height="48" viewBox="0 0 48 48">
  <path d="M11.82 8.817c.714 1.012 2.555 2.468 3.03 2.134.477-.334-.275-2.554-.989-3.566-.713-1.012-1.298-1.828-2.312-1.116-1.015.712-.442 1.536.271 2.548zM6.12 27.97c1.123-.52 3.445-.86 3.69-.333.246.528-1.516 2.075-2.64 2.594-1.124.52-2.038.934-2.56-.19-.523-1.123.385-1.551 1.51-2.07zM36.18 8.817c-.714 1.012-2.554 2.468-3.03 2.134-.477-.334.276-2.554.99-3.566.713-1.012 1.297-1.828 2.312-1.116 1.014.712.442 1.536-.272 2.548zM41.881 27.97c-1.124-.52-3.446-.86-3.691-.333-.245.528 1.516 2.075 2.64 2.594 1.124.52 2.038.934 2.56-.19.523-1.123-.385-1.551-1.509-2.07zM24.947 41.223c-.003-1.239-.673-3.488-1.255-3.488-.581 0-1.24 2.25-1.238 3.488.003 1.238.012 2.242 1.252 2.242 1.239 0 1.244-1.004 1.241-2.242z"/>
  <path d="M21.525 6.61c1.192-1.738 3.758-1.738 4.95 0l3.975 5.802a3 3 0 001.627 1.181l6.745 1.989c2.022.596 2.815 3.036 1.53 4.707l-4.289 5.574a3 3 0 00-.621 1.912l.193 7.03c.058 2.107-2.018 3.615-4.004 2.909l-6.626-2.357a3 3 0 00-2.01 0l-6.627 2.357c-1.986.706-4.061-.802-4.004-2.91l.194-7.03a3 3 0 00-.621-1.911l-4.289-5.574c-1.285-1.67-.492-4.111 1.53-4.707l6.745-1.989a3 3 0 001.626-1.181l3.976-5.801z"/>
</svg>
