<svg xmlns="http://www.w3.org/2000/svg" width="640" height="104" fill="currentColor" viewBox="0 0 640 104">
  <path fill-rule="evenodd" d="M442.055 1.74c1.59-2.32 5.015-2.32 6.605 0l14.72 21.479a4.007 4.007 0 002.171 1.577l24.976 7.362c2.698.796 3.756 4.053 2.041 6.282L476.69 59.077a3.998 3.998 0 00-.829 2.552l.715 26.028c.078 2.813-2.693 4.825-5.344 3.883l-24.533-8.724a4.003 4.003 0 00-2.683 0l-24.533 8.724c-2.651.942-5.422-1.07-5.344-3.883l.716-26.028a4.01 4.01 0 00-.829-2.552L398.147 38.44c-1.715-2.23-.657-5.486 2.041-6.282l24.976-7.362a4.004 4.004 0 002.171-1.577l14.72-21.479zm13.897 68.307c-2.611 2.68-6.159 4.02-10.645 4.02-4.485 0-8.067-1.34-10.745-4.02-2.611-2.747-3.984-6.868-4.118-12.362-.066-2.01-.1-4.723-.1-8.14 0-3.484.034-6.198.1-8.14.134-5.495 1.54-9.582 4.218-12.262 2.678-2.747 6.227-4.12 10.645-4.12 4.352 0 7.867 1.373 10.545 4.12 2.678 2.68 4.117 6.767 4.318 12.261.134 3.886.201 6.6.201 8.14 0 1.408-.067 4.121-.201 8.141-.201 5.561-1.607 9.682-4.218 12.362z" clip-rule="evenodd"/>
  <path d="M412.515 12.524c1.905 2.7 6.818 6.588 8.089 5.696 1.27-.892-.737-6.818-2.642-9.519-1.905-2.7-3.465-4.88-6.172-2.979-2.707 1.9-1.179 4.101.725 6.802zM594.291 85.277c4.337 1.868 9.709 2.802 16.115 2.802 5.805 0 10.876-.834 15.213-2.502 4.404-1.735 7.841-4.204 10.31-7.407 2.535-3.202 3.803-7.04 3.803-11.51 0-4.003-.867-7.306-2.602-9.909-1.735-2.669-4.438-4.838-8.108-6.506-3.67-1.668-8.441-3.102-14.313-4.304-3.803-1-6.872-1.901-9.208-2.702-2.269-.867-3.903-1.835-4.904-2.903-.934-1.134-1.402-2.502-1.402-4.103 0-2.47.935-4.304 2.803-5.505 1.935-1.201 4.537-1.802 7.807-1.802 3.136 0 5.672.667 7.607 2.002 2.002 1.268 3.203 2.769 3.603 4.504.334.667.767 1.134 1.301 1.401.534.267 1.135.4 1.802.4h11.21c.601 0 1.101-.2 1.501-.6.401-.467.601-.968.601-1.501-.067-2.069-.701-4.204-1.902-6.406s-2.969-4.27-5.305-6.206c-2.268-1.935-5.138-3.503-8.607-4.704-3.403-1.201-7.34-1.802-11.811-1.802-5.538 0-10.309.901-14.313 2.703-4.004 1.735-7.106 4.17-9.308 7.306-2.202 3.07-3.303 6.606-3.303 10.61s.867 7.373 2.602 10.11c1.802 2.668 4.437 4.87 7.907 6.605 3.537 1.668 7.807 3.036 12.812 4.104 4.137 1 7.44 1.935 9.909 2.802 2.535.868 4.37 1.835 5.505 2.903 1.201 1.068 1.801 2.469 1.801 4.204 0 2.402-1.101 4.304-3.303 5.705-2.135 1.401-5.371 2.102-9.708 2.102-2.67 0-4.905-.334-6.707-1.001-1.801-.734-3.236-1.635-4.303-2.703-1.001-1.067-1.735-2.168-2.202-3.303a6.003 6.003 0 00-1.302-1.3c-.467-.401-1.134-.601-2.001-.601h-10.71c-.601 0-1.101.233-1.501.7-.401.4-.601.868-.601 1.402.134 3.403 1.301 6.606 3.503 9.608 2.202 3.003 5.438 5.439 9.709 7.307z"/>
  <path fill-rule="evenodd" d="M515.12 86.378c.468.467 1.068.7 1.802.7h11.41c.734 0 1.335-.233 1.802-.7.467-.467.701-1.068.701-1.802v-22.62h13.412c5.405 0 10.075-.8 14.012-2.402 4.004-1.602 7.107-4.037 9.309-7.307 2.268-3.336 3.403-7.54 3.403-12.611 0-5.005-1.135-9.175-3.403-12.512-2.202-3.403-5.305-5.938-9.309-7.606-3.937-1.669-8.607-2.503-14.012-2.503h-27.325c-.734 0-1.334.234-1.802.701-.467.467-.7 1.068-.7 1.802v65.058c0 .734.233 1.335.7 1.802zm28.626-36.833h-13.212V29.527h13.212c3.804 0 6.539.934 8.208 2.802 1.734 1.868 2.602 4.27 2.602 7.207 0 3.336-.968 5.838-2.903 7.506-1.868 1.669-4.504 2.503-7.907 2.503z" clip-rule="evenodd"/>
  <path d="M408.166 62.32c-.39-1.503-6.651-1.724-9.851-.9-3.201.823-5.791 1.51-4.959 4.711.831 3.202 3.431 2.553 6.631 1.73 3.201-.824 8.569-4.038 8.179-5.54zM449.009 98.016c-.007-3.305-1.796-9.309-3.348-9.309-1.553 0-3.314 6.004-3.306 9.31.007 3.304.033 5.983 3.341 5.983 3.307 0 3.321-2.679 3.313-5.984zM482.778 62.74c.394-1.503 6.654-1.712 9.853-.882s5.788 1.521 4.95 4.72c-.837 3.2-3.435 2.547-6.635 1.717-3.199-.83-8.561-4.054-8.168-5.556zM477.866 12.524c-1.905 2.7-6.817 6.588-8.088 5.696-1.271-.892.737-6.818 2.642-9.519 1.904-2.7 3.465-4.88 6.172-2.979 2.707 1.9 1.179 4.101-.726 6.802zM166.747 87.821c-6.387 0-11.743-.931-16.067-2.794-4.258-1.863-7.485-4.291-9.681-7.285-2.195-2.994-3.359-6.188-3.492-9.58 0-.533.199-.999.598-1.398.399-.466.898-.699 1.497-.699h10.678c.865 0 1.531.2 1.996.6a5.98 5.98 0 011.298 1.296c.465 1.132 1.197 2.23 2.195 3.294 1.065 1.064 2.495 1.963 4.292 2.694 1.796.666 4.025.998 6.686.998 4.324 0 7.551-.698 9.68-2.096 2.196-1.397 3.293-3.293 3.293-5.688 0-1.73-.598-3.127-1.796-4.191-1.131-1.065-2.96-2.03-5.489-2.894-2.461-.865-5.755-1.797-9.88-2.795-4.989-1.064-9.247-2.428-12.774-4.091-3.459-1.73-6.087-3.926-7.883-6.587-1.73-2.728-2.595-6.088-2.595-10.08 0-3.991 1.098-7.517 3.293-10.578 2.196-3.127 5.289-5.555 9.281-7.285 3.992-1.796 8.749-2.694 14.271-2.694 4.458 0 8.383.598 11.776 1.796 3.46 1.197 6.321 2.76 8.583 4.69 2.328 1.93 4.091 3.992 5.289 6.188 1.197 2.195 1.829 4.324 1.896 6.387 0 .532-.2 1.03-.599 1.497-.399.399-.898.598-1.497.598h-11.177c-.665 0-1.264-.133-1.796-.399-.533-.266-.965-.732-1.298-1.397-.399-1.73-1.596-3.227-3.592-4.49-1.93-1.332-4.458-1.997-7.585-1.997-3.26 0-5.855.599-7.784 1.797-1.863 1.197-2.794 3.027-2.794 5.488 0 1.597.465 2.961 1.397 4.092.998 1.064 2.628 2.03 4.89 2.894 2.328.798 5.389 1.697 9.181 2.695 5.855 1.197 10.612 2.628 14.271 4.29 3.659 1.664 6.354 3.826 8.084 6.488 1.729 2.594 2.594 5.888 2.594 9.88 0 4.457-1.264 8.283-3.792 11.476-2.462 3.194-5.888 5.655-10.279 7.385-4.325 1.663-9.381 2.495-15.169 2.495z"/>
  <path fill-rule="evenodd" d="M.699 86.124c.465.466 1.064.7 1.796.7h25.548c6.586 0 12.075-.966 16.466-2.895 4.391-1.996 7.718-5.023 9.98-9.082 2.262-4.058 3.493-9.18 3.692-15.368.067-2.861.1-5.39.1-7.585 0-2.195-.033-4.757-.1-7.684-.133-5.921-1.397-10.878-3.792-14.87-2.328-4.058-5.722-7.119-10.18-9.181-4.457-2.13-10.012-3.194-16.665-3.194H2.494c-.73 0-1.33.233-1.795.699C.233 18.13 0 18.728 0 19.46v64.868c0 .732.233 1.33.699 1.796zM27.544 73.95H15.868V29.84h11.177c5.056 0 8.782 1.198 11.177 3.593 2.462 2.328 3.76 5.988 3.892 10.977.067 1.863.1 3.56.1 5.09.067 1.53.067 3.06 0 4.59 0 1.531-.033 3.26-.1 5.19-.066 3.46-.632 6.287-1.696 8.483-.998 2.129-2.562 3.692-4.69 4.69-2.13.998-4.858 1.497-8.184 1.497z" clip-rule="evenodd"/>
  <path d="M75.445 86.124c.465.466 1.064.7 1.796.7h46.006c.732 0 1.331-.234 1.797-.7.465-.465.698-1.064.698-1.796v-7.884c0-.732-.233-1.33-.698-1.796-.466-.466-1.065-.699-1.797-.699H90.115V57.782h30.138c.732 0 1.331-.233 1.797-.698a2.312 2.312 0 00.698-1.697v-7.385c0-.732-.233-1.33-.698-1.796-.466-.466-1.065-.699-1.797-.699H90.115V29.84h32.334c.732 0 1.331-.233 1.796-.698a2.309 2.309 0 00.699-1.697V19.46c0-.732-.233-1.33-.699-1.796-.465-.466-1.064-.699-1.796-.699H77.241c-.732 0-1.33.233-1.796.699-.466.466-.699 1.064-.699 1.796v64.868c0 .732.233 1.33.699 1.796zM211.39 86.124c.466.466 1.065.7 1.797.7h11.277c.732 0 1.33-.234 1.796-.7.466-.465.699-1.064.699-1.796V19.46c0-.732-.233-1.33-.699-1.796-.466-.466-1.064-.699-1.796-.699h-11.277c-.732 0-1.331.233-1.797.699-.465.466-.698 1.064-.698 1.796v64.868c0 .732.233 1.33.698 1.796zM273.718 87.821c-6.254 0-11.61-1.031-16.067-3.094-4.391-2.129-7.818-5.19-10.279-9.18-2.395-4.06-3.693-8.95-3.892-14.671-.067-2.86-.1-5.921-.1-9.181 0-3.26.033-6.354.1-9.281.199-5.589 1.497-10.346 3.892-14.271 2.461-3.926 5.921-6.92 10.379-8.982 4.524-2.129 9.846-3.194 15.967-3.194 4.923 0 9.248.632 12.974 1.897 3.725 1.264 6.852 2.927 9.38 4.99 2.529 1.995 4.458 4.19 5.789 6.586 1.33 2.395 2.029 4.69 2.095 6.886 0 .599-.199 1.131-.598 1.597-.4.399-.932.599-1.597.599h-12.375c-.665 0-1.197-.134-1.597-.4-.332-.266-.632-.665-.898-1.197-.466-1.198-1.231-2.395-2.295-3.593-.998-1.264-2.362-2.329-4.092-3.193-1.73-.865-3.992-1.298-6.786-1.298-4.191 0-7.518 1.098-9.98 3.294-2.395 2.195-3.692 5.788-3.892 10.778a255.504 255.504 0 000 17.464c.2 5.19 1.531 8.915 3.992 11.177 2.528 2.262 5.888 3.393 10.08 3.393 2.727 0 5.156-.465 7.285-1.397 2.195-.998 3.925-2.528 5.189-4.59 1.264-2.063 1.896-4.691 1.896-7.884V58.58H277.41a2.31 2.31 0 01-1.696-.699c-.466-.532-.699-1.131-.699-1.796v-6.387c0-.732.233-1.33.699-1.797a2.31 2.31 0 011.696-.698h24.451c.732 0 1.33.233 1.796.698.466.466.699 1.065.699 1.797v10.878c0 5.721-1.265 10.611-3.793 14.67-2.461 4.058-6.021 7.185-10.678 9.38-4.591 2.13-9.98 3.194-16.167 3.194zM321.217 86.124c.466.466 1.065.7 1.797.7h10.079c.732 0 1.331-.234 1.796-.7.466-.465.699-1.064.699-1.796v-39.62l26.546 40.319c.2.2.499.565.898 1.097.466.466 1.198.7 2.196.7h9.181c.732 0 1.331-.234 1.796-.7.466-.532.699-1.13.699-1.796V19.46c0-.732-.233-1.33-.699-1.796-.465-.466-1.064-.699-1.796-.699H364.23a2.31 2.31 0 00-1.697.699c-.466.466-.698 1.064-.698 1.796v40.917l-26.646-41.615c-.133-.266-.433-.632-.898-1.098-.466-.466-1.198-.699-2.196-.699h-9.081c-.732 0-1.331.233-1.797.699-.465.466-.698 1.064-.698 1.796v64.868c0 .732.233 1.33.698 1.796z"/>
</svg>
