<svg xmlns="http://www.w3.org/2000/svg" width="380" height="380" fill="none" viewBox="0 0 380 380">
  <path fill="#FFBE0B" d="M301.23 48.117c-8.581 12.196-30.712 29.746-36.436 25.717-5.725-4.028 3.32-30.785 11.901-42.98 8.581-12.195 15.61-22.03 27.805-13.45 12.195 8.581 5.311 18.518-3.27 30.713zM356.548 213.963c-14.404-3.86-42.64-3.143-44.451 3.618-1.812 6.762 22.283 21.5 36.686 25.36 14.404 3.859 26.103 6.902 29.963-7.501 3.859-14.404-7.795-17.618-22.198-21.477zM204 348.622c0-14.912-8-42-15-42s-15 27.088-15 42c0 14.912.088 27 15 27s15-12.088 15-27zM78.03 48.143c8.581 12.195 30.712 29.746 36.436 25.718 5.725-4.028-3.319-30.786-11.9-42.981-8.58-12.196-15.609-22.031-27.804-13.45-12.196 8.58-5.312 18.517 3.269 30.713zM23.945 213.963c14.403-3.86 42.639-3.143 44.45 3.618 1.812 6.762-22.282 21.5-36.686 25.36-14.404 3.859-26.103 6.903-29.962-7.501-3.86-14.404 7.794-17.618 22.198-21.477z"/>
  <path fill="url(#paint0_linear_46_549)" d="M172.568 12.694c7.944-11.592 25.051-11.592 32.995 0l46.49 67.833a19.999 19.999 0 0010.842 7.878l78.88 23.252c13.479 3.974 18.765 20.243 10.196 31.38l-50.148 65.176a20 20 0 00-4.141 12.746l2.261 82.205c.386 14.047-13.454 24.102-26.694 19.394l-77.482-27.553a19.992 19.992 0 00-13.402 0l-77.483 27.553c-13.24 4.708-27.08-5.347-26.693-19.394l2.26-82.205a20 20 0 00-4.14-12.746L26.16 143.037c-8.57-11.137-3.283-27.406 10.195-31.38l78.88-23.252a20.001 20.001 0 0010.843-7.878l46.489-67.833z"/>
  <g filter="url(#filter0_dd_46_549)">
    <path fill="url(#paint1_linear_46_549)" d="M179.102 49.065c4.766-6.955 15.03-6.955 19.797 0l38.473 56.138a11.998 11.998 0 006.506 4.726l65.279 19.244c8.088 2.384 11.259 12.145 6.118 18.828l-41.501 53.938a11.995 11.995 0 00-2.485 7.648l1.871 68.03c.232 8.429-8.072 14.462-16.016 11.637l-64.123-22.802a11.997 11.997 0 00-8.041 0l-64.124 22.802c-7.944 2.825-16.247-3.208-16.016-11.637l1.872-68.03c.075-2.76-.802-5.46-2.485-7.648l-41.502-53.938c-5.141-6.683-1.97-16.444 6.118-18.828l65.279-19.244a11.998 11.998 0 006.506-4.726l38.474-56.138z"/>
  </g>
  <g filter="url(#filter1_dd_46_549)">
    <path fill="url(#paint2_linear_46_549)" d="M181.576 87.454c3.575-5.216 11.273-5.216 14.848 0l26.739 39.016a8.998 8.998 0 004.879 3.545l45.37 13.374c6.065 1.788 8.444 9.109 4.588 14.121l-28.844 37.487a9.003 9.003 0 00-1.863 5.736l1.3 47.281c.174 6.322-6.054 10.846-12.012 8.728l-44.566-15.848a9.005 9.005 0 00-6.03 0l-44.566 15.848c-5.958 2.118-12.186-2.406-12.012-8.728l1.3-47.281a9.003 9.003 0 00-1.863-5.736L100 157.51c-3.856-5.012-1.477-12.333 4.588-14.121l45.37-13.374a9.001 9.001 0 004.879-3.545l26.739-39.016z"/>
  </g>
  <defs>
    <linearGradient id="paint0_linear_46_549" x1="21.516" x2="373.897" y1="105.401" y2="277.98" gradientUnits="userSpaceOnUse">
      <stop stop-color="#FB5607"/>
      <stop offset="1" stop-color="#D0005A"/>
    </linearGradient>
    <linearGradient id="paint1_linear_46_549" x1="63.182" x2="327.88" y1="123.96" y2="253.488" gradientUnits="userSpaceOnUse">
      <stop stop-color="#FF891C"/>
      <stop offset="1" stop-color="#F62F15"/>
    </linearGradient>
    <linearGradient id="paint2_linear_46_549" x1="100.286" x2="286.952" y1="140.194" y2="231.5" gradientUnits="userSpaceOnUse">
      <stop stop-color="#FFC82F"/>
      <stop offset="1" stop-color="#FF641A"/>
    </linearGradient>
    <filter id="filter0_dd_46_549" width="265.542" height="254.11" x="57.229" y="41.849" color-interpolation-filters="sRGB" filterUnits="userSpaceOnUse">
      <feFlood flood-opacity="0" result="BackgroundImageFix"/>
      <feColorMatrix in="SourceAlpha" result="hardAlpha" values="0 0 0 0 0 0 0 0 0 0 0 0 0 0 0 0 0 0 127 0"/>
      <feOffset dx="1" dy="2"/>
      <feGaussianBlur stdDeviation="2"/>
      <feComposite in2="hardAlpha" operator="out"/>
      <feColorMatrix values="0 0 0 0 0.525 0 0 0 0 0 0 0 0 0 0.20898 0 0 0 0.4 0"/>
      <feBlend in2="BackgroundImageFix" result="effect1_dropShadow_46_549"/>
      <feColorMatrix in="SourceAlpha" result="hardAlpha" values="0 0 0 0 0 0 0 0 0 0 0 0 0 0 0 0 0 0 127 0"/>
      <feOffset dx="1" dy="1"/>
      <feComposite in2="hardAlpha" operator="out"/>
      <feColorMatrix values="0 0 0 0 0.52549 0 0 0 0 0 0 0 0 0 0.207843 0 0 0 0.2 0"/>
      <feBlend in2="effect1_dropShadow_46_549" result="effect2_dropShadow_46_549"/>
      <feBlend in="SourceGraphic" in2="effect2_dropShadow_46_549" result="shape"/>
    </filter>
    <filter id="filter1_dd_46_549" width="189.744" height="181.728" x="95.128" y="82.542" color-interpolation-filters="sRGB" filterUnits="userSpaceOnUse">
      <feFlood flood-opacity="0" result="BackgroundImageFix"/>
      <feColorMatrix in="SourceAlpha" result="hardAlpha" values="0 0 0 0 0 0 0 0 0 0 0 0 0 0 0 0 0 0 127 0"/>
      <feOffset dx="1" dy="3"/>
      <feGaussianBlur stdDeviation="2"/>
      <feComposite in2="hardAlpha" operator="out"/>
      <feColorMatrix values="0 0 0 0 0.791667 0 0 0 0 0.16537 0 0 0 0 0 0 0 0 0.5 0"/>
      <feBlend in2="BackgroundImageFix" result="effect1_dropShadow_46_549"/>
      <feColorMatrix in="SourceAlpha" result="hardAlpha" values="0 0 0 0 0 0 0 0 0 0 0 0 0 0 0 0 0 0 127 0"/>
      <feOffset dx="1" dy="1"/>
      <feComposite in2="hardAlpha" operator="out"/>
      <feColorMatrix values="0 0 0 0 0.792157 0 0 0 0 0.164706 0 0 0 0 0 0 0 0 0.25 0"/>
      <feBlend in2="effect1_dropShadow_46_549" result="effect2_dropShadow_46_549"/>
      <feBlend in="SourceGraphic" in2="effect2_dropShadow_46_549" result="shape"/>
    </filter>
  </defs>
</svg>
