<svg xmlns="http://www.w3.org/2000/svg" width="380" height="380" fill="none" viewBox="0 0 380 380">
    <path fill="none" d="M178.141 9.374c5.711-8.332 18.007-8.332 23.718 0l52.852 77.118a14.376 14.376 0 007.793 5.662l89.676 26.435c9.689 2.856 13.489 14.551 7.329 22.556l-57.011 74.097a14.378 14.378 0 00-2.977 9.162l2.57 93.455c.278 10.098-9.67 17.325-19.187 13.941l-88.087-31.324a14.377 14.377 0 00-9.634 0L97.096 331.8c-9.517 3.384-19.465-3.843-19.188-13.941l2.57-93.455c.092-3.306-.96-6.541-2.976-9.162l-57.011-74.097c-6.16-8.005-2.36-19.7 7.329-22.556l89.676-26.435a14.376 14.376 0 007.793-5.662l52.852-77.118z" class="star-big-stroke"/>
    <path d="M178.141 9.374c5.711-8.332 18.007-8.332 23.718 0l52.852 77.118a14.376 14.376 0 007.793 5.662l89.676 26.435c9.689 2.856 13.489 14.551 7.329 22.556l-57.011 74.097a14.378 14.378 0 00-2.977 9.162l2.57 93.455c.278 10.098-9.67 17.325-19.187 13.941l-88.087-31.324a14.377 14.377 0 00-9.634 0L97.096 331.8c-9.517 3.384-19.465-3.843-19.188-13.941l2.57-93.455c.092-3.306-.96-6.541-2.976-9.162l-57.011-74.097c-6.16-8.005-2.36-19.7 7.329-22.556l89.676-26.435a14.376 14.376 0 007.793-5.662l52.852-77.118z" class="star-big"/>
    <path d="M306.722 48.093c-6.839 9.697-24.477 23.653-29.04 20.45-4.563-3.203 2.646-24.48 9.485-34.177 6.839-9.697 12.44-17.518 22.161-10.695 9.72 6.823 4.233 14.724-2.606 24.422z" class="shine shine-1"/>
    <path d="M359.737 225.226c-11.487-2.98-33.966-2.228-35.378 3.165-1.411 5.393 17.841 16.969 29.328 19.948 11.486 2.98 20.815 5.327 23.822-6.162 3.008-11.489-6.286-13.972-17.772-16.951z" class="shine shine-2"/>
    <path d="M203.111 355.051c-.027-11.866-6.448-33.422-12.023-33.422-5.575.001-11.896 21.558-11.869 33.424.027 11.867.12 21.486 11.995 21.485 11.876-.001 11.924-9.621 11.897-21.487z" class="shine shine-3"/>
    <path d="M21.093 223.653c11.492-2.957 33.97-2.163 35.37 3.233 1.402 5.396-17.873 16.935-29.365 19.892-11.492 2.958-20.826 5.287-23.81-6.208-2.986-11.494 6.313-13.96 17.805-16.917z" class="shine shine-4"/>
    <path d="M72.08 48.093c6.839 9.697 24.478 23.653 29.04 20.45 4.563-3.203-2.645-24.48-9.485-34.177-6.839-9.697-12.44-17.518-22.16-10.695S65.24 38.395 72.08 48.093z" class="shine shine-5"/>
    <path d="M228.041 254.629c-9.375 9.622-22.116 14.434-38.221 14.434-16.106 0-28.967-4.812-38.582-14.434-9.375-9.864-14.303-24.658-14.784-44.385-.24-7.217-.36-16.96-.36-29.228 0-12.51.12-22.253.36-29.229.481-19.726 5.529-34.401 15.145-44.023 9.615-9.864 22.355-14.795 38.221-14.795 15.625 0 28.245 4.931 37.86 14.795 9.616 9.622 14.784 24.297 15.505 44.023.481 13.953.721 23.696.721 29.229 0 5.051-.24 14.794-.721 29.228-.721 19.967-5.769 34.762-15.144 44.385z" class="star-o"/>
</svg>